HIERARCHY
ROOT Hips
{
	OFFSET 0.00 0.00 0.00
	CHANNELS 6 Xposition Yposition Zposition Xrotation Yrotation Zrotation
	JOINT RightUpLeg
	{
		OFFSET -4.47808 0.00000 0.00000
		CHANNELS 3 Xrotation Yrotation Zrotation
		JOINT RightLeg
		{
			OFFSET 0.00000 -16.40577 0.00000
			CHANNELS 3 Xrotation Yrotation Zrotation
			JOINT RightFoot
			{
				OFFSET 0.00000 -14.64414 0.00000
				CHANNELS 3 Xrotation Yrotation Zrotation
				JOINT RightToeBase
				{
					OFFSET 0.00000 -1.50274 5.60831
					CHANNELS 3 Xrotation Yrotation Zrotation
					End Site
					{
						OFFSET 0.00000 0.00000 2.95275
					}
				}
			}
		}
	}
	JOINT LeftUpLeg
	{
		OFFSET 4.47808 0.00000 0.00000
		CHANNELS 3 Xrotation Yrotation Zrotation
		JOINT LeftLeg
		{
			OFFSET 0.00000 -16.40577 0.00000
			CHANNELS 3 Xrotation Yrotation Zrotation
			JOINT LeftFoot
			{
				OFFSET 0.00000 -14.64414 0.00000
				CHANNELS 3 Xrotation Yrotation Zrotation
				JOINT LeftToeBase
				{
					OFFSET 0.00000 -1.50274 5.60831
					CHANNELS 3 Xrotation Yrotation Zrotation
					End Site
					{
						OFFSET 0.00000 0.00000 2.95275
					}
				}
			}
		}
	}
	JOINT Spine
	{
		OFFSET 0.00000 6.06821 0.00000
		CHANNELS 3 Xrotation Yrotation Zrotation
		JOINT RightShoulder
		{
			OFFSET 0.00000 10.01392 0.00000
			CHANNELS 3 Xrotation Yrotation Zrotation
			JOINT RightArm
			{
				OFFSET -7.19022 0.00000 0.00000
				CHANNELS 3 Xrotation Yrotation Zrotation
				JOINT RightForeArm
				{
					OFFSET -10.17747 0.00000 0.00000
					CHANNELS 3 Yrotation Zrotation Xrotation
					JOINT RightHand
					{
						OFFSET -8.39211 0.00000 0.00000
						CHANNELS 3 Xrotation Yrotation Zrotation
						End Site
						{
							OFFSET -3.93700 0.00000 0.00000
						}
						JOINT RightHandThumb1
						{
							OFFSET 0.00000 0.00000 0.00000
							CHANNELS 3 Xrotation Zrotation Yrotation
							End Site
							{
								OFFSET 0.00000 0.00000 3.93700
							}
						}
					}
				}
			}
		}
		JOINT LeftShoulder
		{
			OFFSET 0.00000 10.01392 0.00000
			CHANNELS 3 Xrotation Yrotation Zrotation
			JOINT LeftArm
			{
				OFFSET 7.19022 0.00000 0.00000
				CHANNELS 3 Xrotation Yrotation Zrotation
				JOINT LeftForeArm
				{
					OFFSET 10.17747 0.00000 0.00000
					CHANNELS 3 Yrotation Zrotation Xrotation
					JOINT LeftHand
					{
						OFFSET 8.39211 0.00000 0.00000
						CHANNELS 3 Xrotation Yrotation Zrotation
						End Site
						{
							OFFSET 3.93700 0.00000 0.00000
						}
						JOINT LeftHandThumb1
						{
							OFFSET 0.00000 0.00000 0.00000
							CHANNELS 3 Xrotation Zrotation Yrotation
							End Site
							{
								OFFSET 0.00000 0.00000 3.93700
							}
						}
					}
				}
			}
		}
		JOINT Head
		{
			OFFSET 0.00000 15.77748 0.00000
			CHANNELS 3 Xrotation Yrotation Zrotation
			End Site
			{
				OFFSET 0.00000 4.52755 0.00000
			}
		}
	}
}
MOTION
Frames: 22
Frame Time: 0.008333
 1.5510 31.8410 -8.7100 88.4230 2.3038 -3.1344 -92.4354 4.9529 -17.5495 -1.4791 -0.0000 -0.0000 1.5249 -9.1579 16.2505 7.4233 0.0000 0.0000 -98.4588 -9.4622 14.1826 5.1977 -0.0000 0.0000 4.9874 10.7672 -24.8350 9.2876 -0.0000 -0.0000 42.9756 -6.7255 -2.2006 -17.6058 22.2521 -38.3936 -55.4806 14.8393 53.7833 43.8634 0.0000 34.5792 4.1515 10.4189 -21.8689 32.8623 0.0000 -24.3270 -13.4329 -18.8761 45.3189 -41.1361 -15.8365 -34.5742 -52.7536 -0.0000 46.2832 -0.8151 2.1134 21.0961 33.1476 -0.0000 26.2537 -47.2458 5.3106 -3.1903
 1.5292 31.8334 -8.7428 88.1627 2.1965 -3.4528 -92.1183 4.8323 -17.4131 -1.5350 0.0000 -0.0000 1.5833 -9.3372 16.1162 7.2365 0.0000 0.0000 -98.3113 -9.8256 14.2943 5.2180 0.0000 -0.0000 5.0859 10.7607 -24.8580 9.3685 -0.0000 -0.0000 42.7390 -6.7763 -2.2598 -17.7960 22.5614 -38.4092 -54.9618 14.4775 54.1351 44.0279 0.0000 34.4472 4.0157 10.4489 -21.1611 32.8623 0.0000 -24.3270 -12.9808 -18.5211 45.1694 -41.1863 -15.7937 -34.2220 -52.8910 -0.0000 45.7166 -0.6607 1.7155 21.0666 33.1476 -0.0000 26.2537 -46.9844 5.7159 -3.2754
 1.5142 31.8264 -8.7718 87.8779 2.1074 -3.7023 -91.7341 4.8749 -17.3102 -1.6188 0.0000 0.0000 1.6156 -9.6685 16.0344 7.5159 0.0000 -0.0000 -98.1277 -10.0772 14.3793 5.2336 0.0000 0.0000 5.1552 10.7507 -24.9027 9.3278 -0.0000 -0.0000 42.5364 -6.9618 -2.3404 -18.0774 22.9875 -38.3487 -54.3713 14.2027 54.4815 44.1752 0.0000 34.1785 3.8810 10.1890 -20.9820 32.8623 0.0000 -24.3270 -12.4411 -18.0497 45.0594 -41.5286 -15.5378 -33.9646 -53.0653 -0.0000 44.8568 -0.3958 1.0682 20.3335 33.1476 -0.0000 26.2537 -46.6936 6.2152 -3.3859
 1.5004 31.8209 -8.8021 87.6520 2.0173 -3.9325 -91.4435 4.8688 -17.2136 -1.6769 0.0000 0.0000 1.6466 -9.9329 16.0826 7.7202 0.0000 0.0000 -98.0077 -10.2619 14.4651 5.2304 0.0000 -0.0000 5.2727 10.6933 -25.0189 9.2051 -0.0000 0.0000 42.2795 -7.2624 -2.4006 -18.3101 23.4252 -38.3399 -53.8575 13.9343 54.8698 44.4076 0.0000 34.0120 3.7591 10.2645 -20.2398 32.8623 0.0000 -24.3270 -11.8534 -17.3881 44.9126 -41.8120 -15.3879 -33.6205 -53.0447 -0.0000 44.3538 -0.1998 0.5361 20.4448 33.1476 -0.0000 26.2537 -46.4091 6.7831 -3.5066
 1.4891 31.8131 -8.8293 87.3972 1.9537 -4.1760 -91.0755 4.9015 -17.1301 -1.7929 0.0000 0.0000 1.7297 -10.2240 15.9741 7.5471 -0.0000 -0.0000 -97.8639 -10.4365 14.5243 5.2249 0.0000 -0.0000 5.3251 10.6091 -24.9215 9.2995 -0.0000 0.0000 42.0777 -7.4417 -2.4843 -18.6072 23.8133 -38.2445 -53.1880 13.6201 55.1340 44.8008 0.0000 33.5640 3.6051 10.2266 -19.5381 32.8623 0.0000 -24.3270 -11.9124 -17.3681 44.8380 -41.4601 -15.0808 -33.7409 -52.8331 -0.0000 44.2283 -0.0016 0.0041 20.8336 33.1476 -0.0000 26.2537 -46.1726 7.3150 -3.5858
 1.4746 31.8054 -8.8554 87.1400 1.8875 -4.3946 -90.9105 4.5692 -17.0290 -1.7466 0.0000 0.0000 1.7103 -10.0598 15.9585 7.5424 0.0000 -0.0000 -97.7043 -10.5364 14.6021 5.1834 0.0000 0.0000 5.3775 10.4815 -24.8320 9.4286 0.0000 -0.0000 41.8906 -7.6728 -2.5865 -19.0010 24.2285 -38.1498 -52.5466 13.2709 55.5075 45.1715 0.0000 33.1787 3.4508 10.0640 -19.0382 32.8623 0.0000 -24.3270 -11.8467 -17.1562 44.6644 -41.1172 -14.9413 -33.6205 -52.6905 -0.0000 43.7955 0.1018 -0.2588 21.4747 33.1476 -0.0000 26.2537 -45.8874 7.8501 -3.7485
 1.4558 31.7969 -8.8837 86.9372 1.7992 -4.6351 -90.7890 4.2373 -16.8853 -1.7279 0.0000 0.0000 1.7084 -9.9860 15.8662 7.5468 0.0000 -0.0000 -97.6054 -10.6696 14.7084 5.1557 -0.0000 0.0000 5.4906 10.3310 -24.9561 9.3301 0.0000 0.0000 41.6142 -7.9142 -2.7014 -19.4289 24.7727 -38.0377 -51.7476 12.8896 55.8570 45.5710 0.0000 32.6020 3.4114 10.1119 -18.7536 32.8623 0.0000 -24.3270 -11.7590 -17.0108 44.5129 -40.6920 -14.6192 -33.5069 -52.5919 -0.0000 43.8527 0.2066 -0.5168 21.7938 33.1476 -0.0000 26.2537 -45.5466 8.4555 -3.8583
 1.4412 31.7883 -8.9082 86.7201 1.7329 -4.8253 -90.6825 3.8661 -16.7708 -1.6895 -0.0000 -0.0000 1.6933 -9.7907 15.8296 7.5515 0.0000 -0.0000 -97.4697 -10.7279 14.7982 5.1000 0.0000 -0.0000 5.5509 10.1533 -24.9926 9.3124 -0.0000 -0.0000 41.3644 -8.0530 -2.9022 -19.6591 25.1042 -37.9562 -51.0432 12.4669 56.0449 46.1731 0.0000 31.9651 3.2263 9.9731 -18.0291 32.8623 0.0000 -24.3270 -11.3930 -16.7639 44.3855 -40.6799 -14.3264 -33.3716 -52.5830 -0.0000 43.5292 0.2554 -0.6383 21.8087 33.1476 -0.0000 26.2537 -45.2178 8.8550 -3.9852
 1.4295 31.7810 -8.9306 86.5110 1.6739 -5.0139 -90.5829 3.4382 -16.6639 -1.6762 -0.0000 0.0000 1.6744 -9.5440 15.7423 7.5608 -0.0000 0.0000 -97.3151 -10.7914 14.8788 4.9900 0.0000 -0.0000 5.6539 10.0307 -25.0344 9.3367 0.0000 0.0000 41.1163 -8.2229 -3.0677 -20.0588 25.5636 -37.8113 -50.2136 12.1542 56.2784 46.5926 0.0000 31.4882 3.1509 9.8860 -17.7774 32.8623 0.0000 -24.3270 -11.4938 -17.1301 44.2943 -39.7986 -13.5713 -33.3197 -52.7310 -0.0000 43.3945 0.2233 -0.5519 22.0306 33.1476 -0.0000 26.2537 -44.8636 9.3884 -4.1359
 1.4178 31.7750 -8.9503 86.3366 1.6109 -5.1844 -90.4835 3.0113 -16.5605 -1.7206 0.0000 -0.0000 1.7153 -9.3119 15.7223 7.4969 0.0000 0.0000 -97.1669 -10.8719 14.9700 4.8697 -0.0000 -0.0000 5.7402 9.9767 -25.1779 9.5184 -0.0000 -0.0000 40.8553 -8.3094 -3.2920 -20.3013 25.7922 -37.7119 -49.5996 11.8829 56.4715 46.9261 0.0000 30.8132 3.1298 9.9597 -17.5443 32.8623 0.0000 -24.3270 -11.1115 -16.9323 44.1438 -39.7533 -13.1990 -33.1619 -52.6385 -0.0000 43.3253 0.2728 -0.6630 22.3619 33.1476 -0.0000 26.2537 -44.5796 9.7334 -4.2854
 1.4057 31.7676 -8.9697 86.1698 1.5573 -5.3478 -90.3640 2.6624 -16.4538 -1.7926 0.0000 0.0000 1.7423 -9.1889 15.6245 7.5379 0.0000 -0.0000 -97.0186 -10.9714 15.0522 4.7505 -0.0000 -0.0000 5.8409 9.8320 -25.0775 9.2359 0.0000 0.0000 40.6233 -8.4603 -3.5073 -20.6795 26.1536 -37.6452 -48.8402 11.5785 56.7386 47.1672 0.0000 30.2919 3.1869 10.0249 -17.7375 32.8623 0.0000 -24.3270 -10.8716 -16.7437 43.9919 -39.6066 -12.7132 -33.0551 -52.7222 -0.0000 42.7333 0.3361 -0.8215 22.2487 33.1476 -0.0000 26.2537 -44.4828 9.9323 -4.2868
 1.3941 31.7615 -8.9849 86.0159 1.5140 -5.4761 -90.2743 2.2754 -16.3624 -1.8613 -0.0000 0.0000 1.7688 -8.9636 15.5371 7.4980 -0.0000 -0.0000 -96.8431 -11.0697 15.1333 4.6051 0.0000 0.0000 5.9177 9.8089 -25.1828 9.2797 -0.0000 0.0000 40.3757 -8.5963 -3.7675 -20.9981 26.4811 -37.5619 -48.1105 11.3052 56.9502 47.3577 0.0000 29.6958 3.3027 10.1343 -18.1577 32.8623 0.0000 -24.3270 -10.5975 -16.5876 43.7525 -39.5118 -12.2852 -32.8914 -52.7382 -0.0000 42.1608 0.3860 -0.9416 22.2925 33.1476 -0.0000 26.2537 -44.3033 10.2134 -4.4209
 1.3845 31.7565 -8.9964 85.8798 1.4717 -5.5978 -90.1519 1.9470 -16.2838 -1.9824 0.0000 -0.0000 1.8247 -8.7870 15.4969 7.4970 0.0000 0.0000 -96.6729 -11.1576 15.2060 4.4360 -0.0000 0.0000 6.0335 9.7499 -25.1491 9.1227 0.0000 -0.0000 40.1489 -8.7397 -4.0176 -21.4156 26.8698 -37.4544 -47.3335 11.0253 57.1843 47.5285 0.0000 29.2433 3.4207 10.3133 -18.4625 32.8623 0.0000 -24.3270 -10.4599 -16.5487 43.5079 -39.2755 -11.6966 -32.7845 -52.8407 -0.0000 41.5744 0.3501 -0.8579 22.2019 33.1476 -0.0000 26.2537 -44.0679 10.8063 -4.6084
 1.3721 31.7513 -9.0119 85.7561 1.4217 -5.7117 -90.0477 1.6937 -16.1972 -2.0716 -0.0000 0.0000 1.8643 -8.6605 15.4446 7.4904 -0.0000 0.0000 -96.5238 -11.2815 15.2950 4.3079 -0.0000 0.0000 6.1086 9.7640 -25.2579 9.2566 0.0000 0.0000 39.8856 -8.9135 -4.3201 -21.8627 27.3274 -37.2991 -46.5240 10.6864 57.4079 47.6970 0.0000 29.0743 3.5261 10.3763 -18.8868 32.8623 0.0000 -24.3270 -10.5085 -16.7838 43.3854 -38.5746 -10.8957 -32.7474 -52.9091 -0.0000 41.2236 0.2938 -0.7038 22.6619 33.1476 -0.0000 26.2537 -43.8964 11.2672 -4.7220
 1.3584 31.7470 -9.0248 85.6478 1.3728 -5.8308 -89.9523 1.4717 -16.1126 -2.1395 0.0000 -0.0000 1.8957 -8.5637 15.4247 7.5059 -0.0000 -0.0000 -96.3890 -11.4000 15.3824 4.1776 0.0000 -0.0000 6.1999 9.7465 -25.3151 9.2929 -0.0000 0.0000 39.6423 -9.0454 -4.6286 -22.3477 27.7466 -37.1020 -45.7502 10.3869 57.6136 47.8339 0.0000 29.0155 3.6960 10.5734 -19.3938 32.8623 0.0000 -24.3270 -10.6251 -17.1174 43.3061 -37.8261 -9.9338 -32.7908 -53.1607 -0.0000 40.6386 0.2486 -0.6017 22.4486 33.1476 -0.0000 26.2537 -43.7713 11.4034 -4.7616
 1.3450 31.7430 -9.0352 85.5484 1.3147 -5.9582 -89.8524 1.2321 -16.0168 -2.2273 0.0000 -0.0000 1.9385 -8.4711 15.3766 7.4567 0.0000 -0.0000 -96.2731 -11.4873 15.4729 4.0508 -0.0000 0.0000 6.2783 9.7003 -25.3491 9.2963 -0.0000 0.0000 39.4072 -9.1867 -4.9124 -22.8773 28.2570 -36.9495 -44.9380 9.9064 57.8616 48.1849 0.0000 28.9961 3.7841 10.6568 -19.6803 32.8623 0.0000 -24.3270 -10.7198 -17.2269 43.0406 -37.3128 -9.2252 -32.7564 -53.3707 -0.0000 39.9526 0.1814 -0.4597 21.5383 33.1476 -0.0000 26.2537 -43.6807 11.6184 -4.8842
 1.3314 31.7392 -9.0448 85.4389 1.2793 -6.0919 -89.7226 1.0609 -15.9491 -2.3007 -0.0000 0.0000 1.9546 -8.4307 15.3514 7.4797 0.0000 -0.0000 -96.1330 -11.6240 15.5473 3.9180 -0.0000 -0.0000 6.3810 9.6882 -25.4112 9.3312 -0.0000 0.0000 39.1933 -9.3489 -5.1936 -23.3236 28.7508 -36.8347 -44.3080 9.2645 58.1443 48.5484 0.0000 29.1391 3.7495 10.7623 -19.3386 32.8623 0.0000 -24.3270 -10.7634 -17.3207 42.8356 -36.7490 -8.4918 -32.7222 -53.5268 -0.0000 39.2429 0.0814 -0.2120 21.0059 33.1476 -0.0000 26.2537 -43.5078 11.9636 -4.9725
 1.3204 31.7356 -9.0469 85.2926 1.2707 -6.1835 -89.5261 0.9521 -15.9226 -2.3904 -0.0000 -0.0000 1.9651 -8.3651 15.3699 7.4585 -0.0000 0.0000 -95.9399 -11.6960 15.5846 3.7873 -0.0000 -0.0000 6.4343 9.7133 -25.3649 9.2818 -0.0000 0.0000 39.0415 -9.4906 -5.5403 -23.7560 29.1909 -36.6222 -43.6410 8.7887 58.2503 48.9515 0.0000 28.9521 3.8096 10.9578 -19.3056 32.8623 0.0000 -24.3270 -10.7164 -17.5027 42.6802 -36.2423 -7.6452 -32.6613 -53.7077 -0.0000 38.5290 -0.0860 0.2314 20.3979 33.1476 -0.0000 26.2537 -43.3387 12.1949 -5.0583
 1.3064 31.7318 -9.0532 85.1805 1.2416 -6.3270 -89.3499 0.8967 -15.8631 -2.4654 0.0000 -0.0000 1.9667 -8.4731 15.3857 7.5190 -0.0000 0.0000 -95.8295 -11.7601 15.6435 3.6850 -0.0000 0.0000 6.4912 9.5868 -25.3122 9.2276 -0.0000 0.0000 38.8793 -9.5343 -5.8182 -24.1516 29.5625 -36.4999 -42.9714 8.3737 58.3798 49.3857 0.0000 29.0391 3.8471 11.0870 -19.2742 32.8623 0.0000 -24.3270 -10.6826 -17.5369 42.4692 -35.8569 -7.0036 -32.6712 -53.7317 -0.0000 37.7565 -0.1720 0.4697 20.1120 33.1476 -0.0000 26.2537 -43.1639 12.4123 -5.2603
 1.2927 31.7288 -9.0601 85.0721 1.2083 -6.4545 -89.2023 0.8414 -15.7999 -2.5135 0.0000 0.0000 1.9586 -8.5641 15.3908 7.5548 0.0000 -0.0000 -95.7291 -11.7910 15.7124 3.5855 -0.0000 -0.0000 6.5632 9.4686 -25.3385 9.3077 -0.0000 -0.0000 38.7390 -9.5758 -6.1126 -24.5595 29.9374 -36.4178 -42.3164 7.9351 58.5231 49.8777 0.0000 29.1195 3.7959 11.1100 -18.9997 32.8623 0.0000 -24.3270 -10.7521 -17.6030 42.2384 -35.3546 -6.4234 -32.6734 -53.6632 -0.0000 36.8163 -0.0174 0.0495 19.3697 33.1476 -0.0000 26.2537 -43.0115 12.6205 -5.4760
 1.2756 31.7255 -9.0663 84.9753 1.1551 -6.6065 -89.0538 0.8122 -15.7133 -2.5479 0.0000 0.0000 1.9450 -8.6543 15.3293 7.5883 -0.0000 0.0000 -95.6419 -11.8789 15.8074 3.5103 0.0000 -0.0000 6.6152 9.3454 -25.3741 9.3094 0.0000 -0.0000 38.5774 -9.6477 -6.3908 -25.0553 30.3989 -36.2599 -41.6320 7.6132 58.6804 50.3763 0.0000 29.0889 3.8368 11.1555 -19.1182 32.8623 0.0000 -24.3270 -10.8643 -17.7649 42.0272 -34.5905 -5.7263 -32.6397 -53.6643 -0.0000 36.0908 -0.0848 0.2424 19.2779 33.1476 -0.0000 26.2537 -42.8462 12.9007 -5.6642
 1.2594 31.7234 -9.0715 84.8854 1.1074 -6.7616 -88.8829 0.8627 -15.6415 -2.5897 0.0000 -0.0000 1.9199 -8.8149 15.2819 7.6789 0.0000 -0.0000 -95.5536 -11.9855 15.8927 3.4304 -0.0000 0.0000 6.6830 9.2536 -25.4029 9.3165 0.0000 -0.0000 38.4435 -9.6408 -6.6847 -25.4601 30.7138 -36.1385 -41.0803 7.3145 58.7980 50.9431 0.0000 28.9755 3.7803 11.2206 -18.7553 32.8623 0.0000 -24.3270 -10.9260 -17.9226 41.8563 -33.9099 -5.0749 -32.6589 -53.6394 -0.0000 35.2704 -0.1085 0.3146 19.0267 33.1476 -0.0000 26.2537 -42.7328 13.0840 -5.8683
